<svg width="185" height="64" viewBox="0 0 185 64" fill="none" xmlns="http://www.w3.org/2000/svg">
<path d="M10.667 37.332H17.0537C17.8377 37.332 18.611 37.508 19.3123 37.8494L24.7577 40.484C25.459 40.8227 26.2323 40.9987 27.019 40.9987H29.7977C32.4857 40.9987 34.667 43.108 34.667 45.7107C34.667 45.8174 34.595 45.908 34.491 45.9374L27.715 47.812C26.4991 48.1479 25.2026 48.0304 24.067 47.4814L18.2457 44.6654" stroke="#44DCDC" stroke-width="4" stroke-linecap="round" stroke-linejoin="round"/>
<path d="M34.667 43.9975L46.915 40.2348C47.9813 39.9076 49.1237 39.9256 50.1791 40.2862C51.2346 40.6468 52.1492 41.3316 52.7923 42.2428C53.7763 43.6028 53.3763 45.5548 51.9417 46.3815L31.9017 57.9468C31.275 58.3094 30.5812 58.5406 29.8623 58.6263C29.1434 58.712 28.4146 58.6505 27.7203 58.4455L10.667 53.3842" stroke="#44DCDC" stroke-width="4" stroke-linecap="round" stroke-linejoin="round"/>
<path d="M34.8261 16.332H32.7124C32.5874 15.7241 32.3687 15.19 32.0562 14.7298C31.7494 14.2695 31.3744 13.8832 30.9312 13.5707C30.4937 13.2525 30.0079 13.0138 29.4738 12.8548C28.9397 12.6957 28.3829 12.6161 27.8034 12.6161C26.7465 12.6161 25.7892 12.8832 24.9312 13.4173C24.0789 13.9513 23.3999 14.7383 22.8943 15.7781C22.3943 16.8178 22.1443 18.0934 22.1443 19.6048C22.1443 21.1161 22.3943 22.3917 22.8943 23.4315C23.3999 24.4712 24.0789 25.2582 24.9312 25.7923C25.7892 26.3263 26.7465 26.5934 27.8034 26.5934C28.3829 26.5934 28.9397 26.5138 29.4738 26.3548C30.0079 26.1957 30.4937 25.9599 30.9312 25.6474C31.3744 25.3292 31.7494 24.94 32.0562 24.4798C32.3687 24.0138 32.5874 23.4798 32.7124 22.8775H34.8261C34.667 23.7695 34.3772 24.5678 33.9568 25.2724C33.5363 25.9769 33.0136 26.5763 32.3886 27.0707C31.7636 27.5593 31.0619 27.9315 30.2835 28.1871C29.5107 28.4428 28.684 28.5707 27.8034 28.5707C26.3147 28.5707 24.9909 28.207 23.8318 27.4798C22.6727 26.7525 21.7607 25.7184 21.096 24.3775C20.4312 23.0366 20.0988 21.4457 20.0988 19.6048C20.0988 17.7638 20.4312 16.1729 21.096 14.832C21.7607 13.4911 22.6727 12.457 23.8318 11.7298C24.9909 11.0025 26.3147 10.6388 27.8034 10.6388C28.684 10.6388 29.5107 10.7667 30.2835 11.0224C31.0619 11.2781 31.7636 11.6531 32.3886 12.1474C33.0136 12.636 33.5363 13.2326 33.9568 13.9371C34.3772 14.636 34.667 15.4343 34.8261 16.332Z" fill="#44DCDC"/>
<path d="M40.5524 28.332V10.8775H38.4387V26.457H30.3251V28.332H40.5524Z" fill="#44DCDC"/>
<path d="M80.9176 29.1562H77.1847C77.1165 28.6733 76.9773 28.2443 76.767 27.8693C76.5568 27.4886 76.2869 27.1648 75.9574 26.8977C75.6278 26.6307 75.2472 26.4261 74.8153 26.2841C74.3892 26.142 73.9261 26.071 73.4261 26.071C72.5227 26.071 71.7358 26.2955 71.0653 26.7443C70.3949 27.1875 69.875 27.8352 69.5057 28.6875C69.1364 29.5341 68.9517 30.5625 68.9517 31.7727C68.9517 33.017 69.1364 34.0625 69.5057 34.9091C69.8807 35.7557 70.4034 36.3949 71.0739 36.8267C71.7443 37.2585 72.5199 37.4744 73.4006 37.4744C73.8949 37.4744 74.3523 37.4091 74.7727 37.2784C75.1989 37.1477 75.5767 36.9574 75.9063 36.7074C76.2358 36.4517 76.5085 36.142 76.7244 35.7784C76.946 35.4148 77.0994 35 77.1847 34.5341L80.9176 34.5511C80.821 35.3523 80.5795 36.125 80.1932 36.8693C79.8125 37.608 79.2983 38.2699 78.6506 38.8551C78.0085 39.4347 77.2415 39.8949 76.3494 40.2358C75.4631 40.571 74.4602 40.7386 73.3409 40.7386C71.7841 40.7386 70.392 40.3864 69.1648 39.6818C67.9432 38.9773 66.9773 37.9574 66.267 36.6222C65.5625 35.2869 65.2102 33.6705 65.2102 31.7727C65.2102 29.8693 65.5682 28.25 66.2841 26.9148C67 25.5795 67.9716 24.5625 69.1989 23.8636C70.4261 23.1591 71.8068 22.8068 73.3409 22.8068C74.3523 22.8068 75.2898 22.9489 76.1534 23.233C77.0227 23.517 77.7926 23.9318 78.4631 24.4773C79.1335 25.017 79.679 25.679 80.0994 26.4631C80.5256 27.2472 80.7983 28.1449 80.9176 29.1562ZM86.2443 40.5H82.2898L88.3153 23.0455H93.071L99.0881 40.5H95.1335L90.7614 27.0341H90.625L86.2443 40.5ZM85.9972 33.6392H95.3381V36.5199H85.9972V33.6392ZM101.189 40.5V23.0455H108.075C109.393 23.0455 110.518 23.2812 111.45 23.7528C112.388 24.2187 113.101 24.8807 113.589 25.7386C114.084 26.5909 114.331 27.5937 114.331 28.7472C114.331 29.9062 114.081 30.9034 113.581 31.7386C113.081 32.5682 112.357 33.2045 111.408 33.6477C110.464 34.0909 109.322 34.3125 107.982 34.3125H103.371V31.3466H107.385C108.089 31.3466 108.675 31.25 109.141 31.0568C109.607 30.8636 109.953 30.5739 110.18 30.1875C110.413 29.8011 110.53 29.321 110.53 28.7472C110.53 28.1676 110.413 27.679 110.18 27.2812C109.953 26.8835 109.604 26.5824 109.132 26.3778C108.666 26.1676 108.078 26.0625 107.368 26.0625H104.879V40.5H101.189ZM110.615 32.5568L114.953 40.5H110.879L106.635 32.5568H110.615ZM116.939 40.5V23.0455H128.7V26.0881H120.629V30.2472H128.095V33.2898H120.629V37.4574H128.734V40.5H116.939ZM131.634 40.5V23.0455H135.325V37.4574H142.808V40.5H131.634ZM148.942 23.0455V40.5H145.251V23.0455H148.942ZM166.577 23.0455V40.5H163.39L155.796 29.5142H155.668V40.5H151.978V23.0455H155.217L162.751 34.0227H162.904V23.0455H166.577ZM169.626 40.5V23.0455H173.317V30.7415H173.547L179.828 23.0455H184.251L177.774 30.8608L184.328 40.5H179.913L175.132 33.3239L173.317 35.5398V40.5H169.626Z" fill="#44DCDC"/>
</svg>
